<svg aria-label="Tagged" class="x1lliihq x1n2onr6 x1cp0k07" fill="currentColor" height="24" role="img" viewBox="0 0 24 24" width="24" xmlns="http://www.w3.org/2000/svg"><title>Tagged</title><path d="M21 7.48a2 2 0 0 0-2-2h-3.046a2.002 2.002 0 0 1-1.506-.683l-1.695-1.939a1 1 0 0 0-1.506 0L9.552 4.797c-.38.434-.93.682-1.506.682H5a2 2 0 0 0-2 2V19l.01.206A2 2 0 0 0 5 21h14a2 2 0 0 0 2-2V7.48ZM23 19a4 4 0 0 1-4 4H5a4 4 0 0 1-3.995-3.794L1 19V7.48a4 4 0 0 1 4-4h3.046l1.696-1.94a3 3 0 0 1 4.516 0l1.696 1.94H19a4 4 0 0 1 4 4V19Z" fill="currentColor"></path><path d="M14.5 10.419a2.5 2.5 0 1 0-5 0 2.5 2.5 0 0 0 5 0Zm2 0a4.5 4.5 0 1 1-9 0 4.5 4.5 0 0 1 9 0ZM12 16.003c3.511 0 6.555 1.99 8.13 4.906a1 1 0 0 1-1.76.95c-1.248-2.31-3.64-3.857-6.37-3.857S6.878 19.55 5.63 21.86a1 1 0 0 1-1.76-.951c1.575-2.915 4.618-4.906 8.13-4.906Z" fill="currentColor"></path></svg>